<svg xmlns="http://www.w3.org/2000/svg" viewBox="0 0 640 640" width="640" height="640" role="img">

  <defs>
    <linearGradient id="bg" x1="0" y1="0" x2="1" y2="1">
      <stop offset="0" stop-color="#ffffff"/>
      <stop offset=".55" stop-color="#f5f9ff"/>
      <stop offset="1" stop-color="#e6efff"/>
    </linearGradient>
    <radialGradient id="glow" cx=".5" cy=".42" r=".62">
      <stop offset="0" stop-color="#ffffff" stop-opacity=".95"/>
      <stop offset="1" stop-color="#ffffff" stop-opacity="0"/>
    </radialGradient>
    <radialGradient id="shadow" cx=".5" cy=".5" r=".5">
      <stop offset="0" stop-color="#0a3f8f" stop-opacity=".22"/>
      <stop offset="1" stop-color="#0a3f8f" stop-opacity="0"/>
    </radialGradient>
    <linearGradient id="metal" x1="0" y1="0" x2="1" y2="0">
      <stop offset="0" stop-color="#8fa3bd"/>
      <stop offset=".18" stop-color="#e8eef7"/>
      <stop offset=".42" stop-color="#ffffff"/>
      <stop offset=".68" stop-color="#dde5f0"/>
      <stop offset="1" stop-color="#93a6bf"/>
    </linearGradient>
    <linearGradient id="metalV" x1="0" y1="0" x2="0" y2="1">
      <stop offset="0" stop-color="#f4f7fc"/>
      <stop offset=".5" stop-color="#dbe3ee"/>
      <stop offset="1" stop-color="#a9b8cd"/>
    </linearGradient>
    <linearGradient id="blueG" x1="0" y1="0" x2="1" y2="1">
      <stop offset="0" stop-color="#5f97ff"/>
      <stop offset=".5" stop-color="#0d6efd"/>
      <stop offset="1" stop-color="#0a3f8f"/>
    </linearGradient>
    <linearGradient id="blueSoft" x1="0" y1="0" x2="0" y2="1">
      <stop offset="0" stop-color="#eaf2ff"/>
      <stop offset="1" stop-color="#c9dcff"/>
    </linearGradient>
    <linearGradient id="whiteG" x1="0" y1="0" x2="1" y2="1">
      <stop offset="0" stop-color="#ffffff"/>
      <stop offset=".62" stop-color="#f2f6fc"/>
      <stop offset="1" stop-color="#dde5f1"/>
    </linearGradient>
    <linearGradient id="glass" x1="0" y1="0" x2="1" y2="0">
      <stop offset="0" stop-color="#ffffff" stop-opacity=".15"/>
      <stop offset=".28" stop-color="#ffffff" stop-opacity=".72"/>
      <stop offset=".55" stop-color="#ffffff" stop-opacity=".12"/>
      <stop offset="1" stop-color="#9fb4cf" stop-opacity=".35"/>
    </linearGradient>
    <linearGradient id="darkG" x1="0" y1="0" x2="0" y2="1">
      <stop offset="0" stop-color="#33415c"/>
      <stop offset="1" stop-color="#111a2e"/>
    </linearGradient>
    
  </defs>
  <rect width="640" height="640" fill="url(#bg)"/>
  <circle cx="320" cy="288" r="248" fill="url(#glow)"/>
  <ellipse cx="320" cy="566" rx="175" ry="26" fill="url(#shadow)"/>

  <g transform="rotate(-16 320 340)">
    <!-- корпус картриджа -->
    <rect x="150" y="264" width="300" height="118" rx="26" fill="url(#whiteG)" stroke="#cbd5e5" stroke-width="2.5"/>
    <rect x="150" y="264" width="300" height="58" rx="26" fill="url(#blueG)" opacity=".92"/>
    <path d="M150 300h300v22H150z" fill="url(#blueG)" opacity=".92"/>
    <!-- разделение двух камер -->
    <path d="M300 264v118" stroke="#fff" stroke-width="3" opacity=".5"/>
    <rect x="172" y="284" width="106" height="12" rx="6" fill="#fff" opacity=".9"/>
    <rect x="172" y="340" width="80" height="11" rx="5.5" fill="#e2e8f2"/>
    <rect x="320" y="340" width="104" height="11" rx="5.5" fill="#e2e8f2"/>
    <!-- поршни -->
    <rect x="116" y="288" width="38" height="70" rx="12" fill="url(#metalV)" stroke="#cbd5e5" stroke-width="2"/>
    <!-- выход -->
    <rect x="446" y="296" width="34" height="54" rx="10" fill="url(#metalV)" stroke="#cbd5e5" stroke-width="2"/>
    <!-- смешивающая канюля -->
    <g>
      <rect x="478" y="300" width="30" height="46" rx="9" fill="#0d6efd"/>
      <path d="M508 310h44c8 0 8 26 0 26h-44z" fill="url(#blueG)"/>
      <path d="M552 316c22-2 40 4 54 20" stroke="#5f97ff" stroke-width="13" fill="none" stroke-linecap="round"/>
    </g>
    <rect x="158" y="270" width="284" height="9" rx="4.5" fill="#fff" opacity=".55"/>
  </g>
  <!-- выдавленный материал -->
  <path d="M470 446c34-8 58 0 74 22 6 8-2 18-12 14-24-10-44-12-62-6-10 3-14-8-4-11z" fill="url(#blueG)" opacity=".3"/>

</svg>
